<svg aria-hidden="true" style="position: absolute; width: 0; height: 0; overflow: hidden;" version="1.1"
    xmlns="http://www.w3.org/2000/svg" xmlns:xlink="http://www.w3.org/1999/xlink">
    <defs>
        <symbol id="icon-hamburger" viewBox="0 0 32 32">
            <path
                d="M30.667 23.598h-29.333v-2.6h29.333v2.6zM30.667 17.099h-29.333v-2.6h29.333v2.6zM30.667 10.6h-29.333v-2.6h29.333v2.6z">
            </path>
        </symbol>
        <symbol id="icon-close" viewBox="0 0 32 32">
            <path
                d="M24.122 7.152c0.521 0.521 0.521 1.365 0 1.886l-6.599 6.599 6.599 6.601c0.521 0.521 0.521 1.365 0 1.886s-1.365 0.521-1.886 0l-6.599-6.601-6.601 6.601c-0.521 0.521-1.365 0.521-1.886 0s-0.521-1.365 0-1.886l6.601-6.601-6.601-6.599c-0.521-0.521-0.521-1.365 0-1.886s1.365-0.521 1.886 0l6.601 6.599 6.599-6.599c0.521-0.521 1.365-0.521 1.886 0z">
            </path>
        </symbol>
        <symbol id="icon-quotation-marks" viewBox="0 0 44 32">
            <path
                d="M0 15.411v-15.411h17.875v11.603c0 12.087-5.958 18.886-17.875 20.397v-6.346c3.010-0.786 5.068-1.934 6.173-3.445 1.167-1.511 1.874-3.777 2.119-6.799h-8.293z">
            </path>
            <path
                d="M25.645 15.411v-15.411h17.875v11.603c0 12.087-5.958 18.886-17.875 20.397v-6.346c3.010-0.786 5.068-1.934 6.173-3.445 1.167-1.511 1.874-3.777 2.119-6.799h-8.293z">
            </path>
        </symbol>
        <symbol id="icon-link-arrow" viewBox="0 0 31 32">
            <path stroke-linejoin="miter" stroke-linecap="butt" stroke-miterlimit="4" stroke-width="2.7826"
                d="M1.391 29.782l27.826-27.826M30.609 1.956h-29.217M29.217 1.956v29.217"></path>
        </symbol>
    </defs>
</svg>